Cowboys and Aliens (2011) Hindi Dubbed 380MB CAMRip-=MTR=-

Check out MY latest Uploads:
 
http://thepiratebay.org/user/HDvideos/0/7

Stay updated with us....

Seed after downloading....

EnjoY with HDvideos..

Team Mastitorrents

Say thanks if u like my posts

Give ur valuable feedbacks

Quality Uploads from HDvideos

-=MT=-Uploader-=HDvideos=-

Recommended Player:VLC Player

Want More: Join -=Mastitorrents=-

Video
ID : 224 (0xE0)
Format : MPEG Video
Format version : Version 1
Format settings, BVOP : Yes
Format settings, Matrix : Default
Duration : 1h 18mn
Bit rate mode : Variable
Bit rate : 600 Kbps
Width : 352 pixels
Height : 288 pixels
Display aspect ratio : 4:3
Frame rate : 25.000 fps
Standard : PAL
Color space : YUV
Bit depth : 8 bits
Scan type : Progressive
Compression mode : Lossy
Bits/(Pixel*Frame) : 0.237
Stream size : 335 MiB (89%)
Writing library : TMPGEnc Video Mastering Works 5 Version. 5.0.5.32

Audio
ID : 192 (0xC0)
Format : MPEG Audio
Format version : Version 1
Format profile : Layer 2
Duration : 1h 18mn
Bit rate mode : Constant
Bit rate : 64.0 Kbps
Channel(s) : 2 channels
Sampling rate : 48.0 KHz
Compression mode : Lossy
Stream size : 35.9 MiB (9%)
